  0
SECTION
  2
HEADER
  9
$ACADVER
  1
AC1009
  9
$INSBASE
 10
0.0
 20
0.0
 30
0.0
  9
$EXTMIN
 10
0.0
 20
0.0
 30
0.0
  9
$EXTMAX
 10
0.0
 20
0.0
 30
0.0
  0
ENDSEC
  0
SECTION
  2
TABLES
  0
TABLE
  2
VPORT
 70
0
  0
ENDTAB
  0
TABLE
  2
LTYPE
 70
1
  0
LTYPE
  2
CONTINUOUS
 70
0
  3
Solid line
 72
65
 73
0
 40
0.0
  0
ENDTAB
  0
TABLE
  2
LAYER
 70
1
  0
LAYER
  2
0
 70
64
 62
7
  6
continuous
  0
ENDTAB
  0
TABLE
  2
STYLE
 70
1
  0
STYLE
  2
STANDARD
 70
0
 40
0
 41
1.0
 50
0.0
 71
0
 42
1
 3
ARIAL.TTF
 4

  0
ENDTAB
  0
TABLE
  2
VIEW
 70
0
  0
ENDTAB
  0
ENDSEC
  0
SECTION
  2
BLOCKS
  0
BLOCK
  8
0
  2
PART__FEATURE
 70
0
 10
0.0
 20
0.0
 30
0.0
  3
PART__FEATURE
  0
ARC
  8
0
 62
0
 10
2.82842712475
 20
2.82842712475
 30
0.0
 40
2.2
 50
-180.0
 51
-90.0
  0
LINE
  8
0
 62
0
 10
0.62842712475
 20
2.82842712475
 30
0.0
 11
0.628427124746
 21
6.52842712476
 31
0.0
  0
ARC
  8
0
 62
0
 10
1.12842712475
 20
6.52842712476
 30
0.0
 40
0.5
 50
90.0
 51
-180.0
  0
LINE
  8
0
 62
0
 10
1.12842712475
 20
7.02842712476
 30
0.0
 11
6.52842712475
 21
7.02842712476
 31
0.0
  0
ARC
  8
0
 62
0
 10
6.52842712475
 20
6.52842712476
 30
0.0
 40
0.5
 50
-0.0
 51
90.0000000001
  0
LINE
  8
0
 62
0
 10
7.02842712475
 20
6.52842712475
 30
0.0
 11
7.02842712475
 21
1.12842712475
 31
0.0
  0
ARC
  8
0
 62
0
 10
6.52842712475
 20
1.12842712475
 30
0.0
 40
0.5
 50
-90.0
 51
-0.0
  0
LINE
  8
0
 62
0
 10
6.52842712475
 20
0.62842712475
 30
0.0
 11
2.82842712475
 21
0.62842712475
 31
0.0
  0
LINE
  8
0
 62
0
 10
34.8284271247
 20
0.62842712475
 30
0.0
 11
31.1284271247
 21
0.628427124746
 31
0.0
  0
ARC
  8
0
 62
0
 10
31.1284271247
 20
1.12842712475
 30
0.0
 40
0.5
 50
-180.0
 51
-90.0
  0
LINE
  8
0
 62
0
 10
30.6284271247
 20
1.12842712475
 30
0.0
 11
30.6284271247
 21
6.52842712475
 31
0.0
  0
ARC
  8
0
 62
0
 10
31.1284271247
 20
6.52842712475
 30
0.0
 40
0.5
 50
90.0
 51
-180.0
  0
LINE
  8
0
 62
0
 10
31.1284271247
 20
7.02842712475
 30
0.0
 11
36.5284271247
 21
7.02842712475
 31
0.0
  0
ARC
  8
0
 62
0
 10
36.5284271247
 20
6.52842712475
 30
0.0
 40
0.5
 50
0.0
 51
90.0000000006
  0
LINE
  8
0
 62
0
 10
37.0284271247
 20
6.52842712475
 30
0.0
 11
37.0284271247
 21
2.82842712475
 31
0.0
  0
ARC
  8
0
 62
0
 10
34.8284271247
 20
2.82842712475
 30
0.0
 40
2.2
 50
-90.0
 51
0.0
  0
LINE
  8
0
 62
0
 10
36.5284271247
 20
30.6284271247
 30
0.0
 11
31.1284271247
 21
30.6284271247
 31
0.0
  0
ARC
  8
0
 62
0
 10
31.1284271247
 20
31.1284271247
 30
0.0
 40
0.5
 50
-180.0
 51
-90.0
  0
LINE
  8
0
 62
0
 10
30.6284271247
 20
31.1284271247
 30
0.0
 11
30.6284271247
 21
36.5284271247
 31
0.0
  0
ARC
  8
0
 62
0
 10
31.1284271247
 20
36.5284271247
 30
0.0
 40
0.5
 50
90.0
 51
-180.0
  0
LINE
  8
0
 62
0
 10
31.1284271247
 20
37.0284271247
 30
0.0
 11
34.8284271247
 21
37.0284271247
 31
0.0
  0
ARC
  8
0
 62
0
 10
34.8284271247
 20
34.8284271247
 30
0.0
 40
2.2
 50
-0.0
 51
90.0
  0
LINE
  8
0
 62
0
 10
37.0284271247
 20
34.8284271247
 30
0.0
 11
37.0284271247
 21
31.1284271247
 31
0.0
  0
ARC
  8
0
 62
0
 10
36.5284271247
 20
31.1284271247
 30
0.0
 40
0.5
 50
-90.0000000001
 51
-0.0
  0
LINE
  8
0
 62
0
 10
0.628427124755
 20
31.1284271247
 30
0.0
 11
0.628427124755
 21
34.8284271247
 31
0.0
  0
ARC
  8
0
 62
0
 10
2.82842712476
 20
34.8284271247
 30
0.0
 40
2.2
 50
90.0
 51
-180.0
  0
LINE
  8
0
 62
0
 10
2.82842712476
 20
37.0284271247
 30
0.0
 11
6.52842712476
 21
37.0284271247
 31
0.0
  0
ARC
  8
0
 62
0
 10
6.52842712476
 20
36.5284271247
 30
0.0
 40
0.5
 50
-0.0
 51
89.9999999994
  0
LINE
  8
0
 62
0
 10
7.02842712476
 20
36.5284271247
 30
0.0
 11
7.02842712476
 21
31.1284271247
 31
0.0
  0
ARC
  8
0
 62
0
 10
6.52842712476
 20
31.1284271247
 30
0.0
 40
0.5
 50
-90.0
 51
-0.0
  0
LINE
  8
0
 62
0
 10
6.52842712476
 20
30.6284271247
 30
0.0
 11
1.12842712476
 21
30.6284271247
 31
0.0
  0
ARC
  8
0
 62
0
 10
1.12842712476
 20
31.1284271247
 30
0.0
 40
0.5
 50
-180.0
 51
-90.0
  0
CIRCLE
  8
0
 62
0
 10
18.8284271247
 20
18.8284271247
 30
0.0
 40
3.4
  0
ARC
  8
0
 62
0
 10
13.8284271247
 20
4.63603896932
 30
0.0
 40
5.0
 50
135.0
 51
-180.0
  0
LINE
  8
0
 62
0
 10
8.82842712475
 20
4.63603896932
 30
0.0
 11
8.82842712475
 21
3.32842712475
 31
0.0
  0
ARC
  8
0
 62
0
 10
11.3284271247
 20
3.32842712475
 30
0.0
 40
2.5
 50
180.0
 51
-90.0
  0
ARC
  8
0
 62
0
 10
11.3284271247
 20
1.32842712475
 30
0.0
 40
0.5
 50
-90.0
 51
-0.0
  0
LINE
  8
0
 62
0
 10
11.8284271247
 20
1.32842712475
 30
0.0
 11
11.8284271247
 21
2.82842712475
 31
0.0
  0
ARC
  8
0
 62
0
 10
12.3284271247
 20
2.82842712475
 30
0.0
 40
0.5
 50
90.0
 51
-180.0
  0
LINE
  8
0
 62
0
 10
12.3284271247
 20
3.32842712475
 30
0.0
 11
13.8284271247
 21
3.32842712475
 31
0.0
  0
ARC
  8
0
 62
0
 10
13.8284271247
 20
2.32842712475
 30
0.0
 40
1.0
 50
0.0
 51
90.0
  0
LINE
  8
0
 62
0
 10
14.8284271247
 20
2.32842712475
 30
0.0
 11
14.8284271247
 21
0.328427124746
 31
0.0
  0
ARC
  8
0
 62
0
 10
13.3284271247
 20
0.328427124746
 30
0.0
 40
1.5
 50
-90.0
 51
0.0
  0
LINE
  8
0
 62
0
 10
13.3284271247
 20
-1.17157287525
 30
0.0
 11
2.82842712475
 21
-1.17157287525
 31
0.0
  0
ARC
  8
0
 62
0
 10
2.82842712475
 20
2.82842712475
 30
0.0
 40
4.0
 50
-180.0
 51
-90.0
  0
LINE
  8
0
 62
0
 10
-1.17157287525
 20
2.82842712475
 30
0.0
 11
-1.17157287525
 21
13.3284271247
 31
0.0
  0
ARC
  8
0
 62
0
 10
0.328427124746
 20
13.3284271247
 30
0.0
 40
1.5
 50
90.0
 51
-180.0
  0
LINE
  8
0
 62
0
 10
0.328427124746
 20
14.8284271247
 30
0.0
 11
2.32842712475
 21
14.8284271247
 31
0.0
  0
ARC
  8
0
 62
0
 10
2.32842712475
 20
13.8284271247
 30
0.0
 40
1.0
 50
-0.0
 51
90.0
  0
LINE
  8
0
 62
0
 10
3.32842712475
 20
13.8284271247
 30
0.0
 11
3.32842712475
 21
12.3284271247
 31
0.0
  0
ARC
  8
0
 62
0
 10
2.82842712475
 20
12.3284271247
 30
0.0
 40
0.5
 50
-90.0
 51
-0.0
  0
LINE
  8
0
 62
0
 10
2.82842712475
 20
11.8284271247
 30
0.0
 11
1.32842712475
 21
11.8284271247
 31
0.0
  0
ARC
  8
0
 62
0
 10
1.32842712475
 20
11.3284271247
 30
0.0
 40
0.5
 50
90.0
 51
180.0
  0
ARC
  8
0
 62
0
 10
3.32842712475
 20
11.3284271247
 30
0.0
 40
2.5
 50
-180.0
 51
-90.0
  0
LINE
  8
0
 62
0
 10
3.32842712475
 20
8.82842712475
 30
0.0
 11
4.63603896932
 21
8.82842712475
 31
0.0
  0
ARC
  8
0
 62
0
 10
4.63603896932
 20
13.8284271247
 30
0.0
 40
5.0
 50
-90.0
 51
-45.0
  0
LINE
  8
0
 62
0
 10
8.17157287525
 20
10.2928932188
 30
0.0
 11
9.61396103068
 21
11.7352813742
 31
0.0
  0
ARC
  8
0
 62
0
 10
6.07842712475
 20
15.2708152802
 30
0.0
 40
5.0
 50
-45.0
 51
-0.0
  0
LINE
  8
0
 62
0
 10
11.0784271247
 20
15.2708152802
 30
0.0
 11
11.0784271247
 21
22.3860389693
 31
0.0
  0
ARC
  8
0
 62
0
 10
6.07842712475
 20
22.3860389693
 30
0.0
 40
5.0
 50
-0.0
 51
45.0
  0
LINE
  8
0
 62
0
 10
9.61396103068
 20
25.9215728753
 30
0.0
 11
8.17157287525
 21
27.3639610307
 31
0.0
  0
ARC
  8
0
 62
0
 10
4.63603896932
 20
23.8284271247
 30
0.0
 40
5.0
 50
45.0
 51
90.0
  0
LINE
  8
0
 62
0
 10
4.63603896932
 20
28.8284271247
 30
0.0
 11
3.32842712475
 21
28.8284271247
 31
0.0
  0
ARC
  8
0
 62
0
 10
3.32842712475
 20
26.3284271247
 30
0.0
 40
2.5
 50
90.0
 51
-180.0
  0
ARC
  8
0
 62
0
 10
1.32842712475
 20
26.3284271247
 30
0.0
 40
0.5
 50
-180.0
 51
-90.0
  0
LINE
  8
0
 62
0
 10
1.32842712475
 20
25.8284271247
 30
0.0
 11
2.82842712475
 21
25.8284271247
 31
0.0
  0
ARC
  8
0
 62
0
 10
2.82842712475
 20
25.3284271247
 30
0.0
 40
0.5
 50
-0.0
 51
90.0
  0
LINE
  8
0
 62
0
 10
3.32842712475
 20
25.3284271247
 30
0.0
 11
3.32842712475
 21
23.8284271247
 31
0.0
  0
ARC
  8
0
 62
0
 10
2.32842712475
 20
23.8284271247
 30
0.0
 40
1.0
 50
-90.0
 51
-0.0
  0
LINE
  8
0
 62
0
 10
2.32842712475
 20
22.8284271247
 30
0.0
 11
0.328427124746
 21
22.8284271247
 31
0.0
  0
ARC
  8
0
 62
0
 10
0.328427124746
 20
24.3284271247
 30
0.0
 40
1.5
 50
-180.0
 51
-90.0
  0
LINE
  8
0
 62
0
 10
-1.17157287525
 20
24.3284271247
 30
0.0
 11
-1.17157287525
 21
34.8284271247
 31
0.0
  0
ARC
  8
0
 62
0
 10
2.82842712475
 20
34.8284271247
 30
0.0
 40
4.0
 50
90.0
 51
-180.0
  0
LINE
  8
0
 62
0
 10
2.82842712475
 20
38.8284271247
 30
0.0
 11
13.3284271247
 21
38.8284271247
 31
0.0
  0
ARC
  8
0
 62
0
 10
13.3284271247
 20
37.3284271247
 30
0.0
 40
1.5
 50
-0.0
 51
90.0
  0
LINE
  8
0
 62
0
 10
14.8284271247
 20
37.3284271247
 30
0.0
 11
14.8284271247
 21
35.3284271247
 31
0.0
  0
ARC
  8
0
 62
0
 10
13.8284271247
 20
35.3284271247
 30
0.0
 40
1.0
 50
-90.0
 51
-0.0
  0
LINE
  8
0
 62
0
 10
13.8284271247
 20
34.3284271247
 30
0.0
 11
12.3284271247
 21
34.3284271247
 31
0.0
  0
ARC
  8
0
 62
0
 10
12.3284271247
 20
34.8284271247
 30
0.0
 40
0.5
 50
-180.0
 51
-90.0
  0
LINE
  8
0
 62
0
 10
11.8284271247
 20
34.8284271247
 30
0.0
 11
11.8284271247
 21
36.3284271247
 31
0.0
  0
ARC
  8
0
 62
0
 10
11.3284271247
 20
36.3284271247
 30
0.0
 40
0.5
 50
-0.0
 51
90.0
  0
ARC
  8
0
 62
0
 10
11.3284271247
 20
34.3284271247
 30
0.0
 40
2.5
 50
90.0
 51
-180.0
  0
LINE
  8
0
 62
0
 10
8.82842712475
 20
34.3284271247
 30
0.0
 11
8.82842712475
 21
33.0208152802
 31
0.0
  0
ARC
  8
0
 62
0
 10
13.8284271247
 20
33.0208152802
 30
0.0
 40
5.0
 50
-180.0
 51
-135.0
  0
LINE
  8
0
 62
0
 10
10.2928932188
 20
29.4852813742
 30
0.0
 11
11.7352813742
 21
28.0428932188
 31
0.0
  0
ARC
  8
0
 62
0
 10
15.2708152802
 20
31.5784271247
 30
0.0
 40
5.0
 50
-135.0
 51
-90.0
  0
LINE
  8
0
 62
0
 10
15.2708152802
 20
26.5784271247
 30
0.0
 11
22.3860389693
 21
26.5784271247
 31
0.0
  0
ARC
  8
0
 62
0
 10
22.3860389693
 20
31.5784271247
 30
0.0
 40
5.0
 50
-90.0
 51
-45.0
  0
LINE
  8
0
 62
0
 10
25.9215728753
 20
28.0428932188
 30
0.0
 11
27.3639610307
 21
29.4852813742
 31
0.0
  0
ARC
  8
0
 62
0
 10
23.8284271247
 20
33.0208152802
 30
0.0
 40
5.0
 50
-45.0
 51
-0.0
  0
LINE
  8
0
 62
0
 10
28.8284271247
 20
33.0208152802
 30
0.0
 11
28.8284271247
 21
34.3284271247
 31
0.0
  0
ARC
  8
0
 62
0
 10
26.3284271247
 20
34.3284271247
 30
0.0
 40
2.5
 50
-0.0
 51
90.0
  0
ARC
  8
0
 62
0
 10
26.3284271247
 20
36.3284271247
 30
0.0
 40
0.5
 50
90.0
 51
-180.0
  0
LINE
  8
0
 62
0
 10
25.8284271247
 20
36.3284271247
 30
0.0
 11
25.8284271247
 21
34.8284271247
 31
0.0
  0
ARC
  8
0
 62
0
 10
25.3284271247
 20
34.8284271247
 30
0.0
 40
0.5
 50
-90.0
 51
-0.0
  0
LINE
  8
0
 62
0
 10
25.3284271247
 20
34.3284271247
 30
0.0
 11
23.8284271247
 21
34.3284271247
 31
0.0
  0
ARC
  8
0
 62
0
 10
23.8284271247
 20
35.3284271247
 30
0.0
 40
1.0
 50
-180.0
 51
-90.0
  0
LINE
  8
0
 62
0
 10
22.8284271247
 20
35.3284271247
 30
0.0
 11
22.8284271247
 21
37.3284271247
 31
0.0
  0
ARC
  8
0
 62
0
 10
24.3284271247
 20
37.3284271247
 30
0.0
 40
1.5
 50
90.0
 51
-180.0
  0
LINE
  8
0
 62
0
 10
24.3284271247
 20
38.8284271247
 30
0.0
 11
34.8284271247
 21
38.8284271247
 31
0.0
  0
ARC
  8
0
 62
0
 10
34.8284271247
 20
34.8284271247
 30
0.0
 40
4.0
 50
-0.0
 51
90.0
  0
LINE
  8
0
 62
0
 10
38.8284271247
 20
34.8284271247
 30
0.0
 11
38.8284271247
 21
24.3284271247
 31
0.0
  0
ARC
  8
0
 62
0
 10
37.3284271247
 20
24.3284271247
 30
0.0
 40
1.5
 50
-90.0
 51
-0.0
  0
LINE
  8
0
 62
0
 10
37.3284271247
 20
22.8284271247
 30
0.0
 11
35.3284271247
 21
22.8284271247
 31
0.0
  0
ARC
  8
0
 62
0
 10
35.3284271247
 20
23.8284271247
 30
0.0
 40
1.0
 50
-180.0
 51
-90.0
  0
LINE
  8
0
 62
0
 10
34.3284271247
 20
23.8284271247
 30
0.0
 11
34.3284271247
 21
25.3284271247
 31
0.0
  0
ARC
  8
0
 62
0
 10
34.8284271247
 20
25.3284271247
 30
0.0
 40
0.5
 50
90.0
 51
-180.0
  0
LINE
  8
0
 62
0
 10
34.8284271247
 20
25.8284271247
 30
0.0
 11
36.3284271247
 21
25.8284271247
 31
0.0
  0
ARC
  8
0
 62
0
 10
36.3284271247
 20
26.3284271247
 30
0.0
 40
0.5
 50
-90.0
 51
-0.0
  0
ARC
  8
0
 62
0
 10
34.3284271247
 20
26.3284271247
 30
0.0
 40
2.5
 50
-0.0
 51
90.0
  0
LINE
  8
0
 62
0
 10
34.3284271247
 20
28.8284271247
 30
0.0
 11
33.0208152802
 21
28.8284271247
 31
0.0
  0
ARC
  8
0
 62
0
 10
33.0208152802
 20
23.8284271247
 30
0.0
 40
5.0
 50
90.0
 51
135.0
  0
LINE
  8
0
 62
0
 10
29.4852813742
 20
27.3639610307
 30
0.0
 11
28.0428932188
 21
25.9215728753
 31
0.0
  0
ARC
  8
0
 62
0
 10
31.5784271247
 20
22.3860389693
 30
0.0
 40
5.0
 50
135.0
 51
-180.0
  0
LINE
  8
0
 62
0
 10
26.5784271247
 20
22.3860389693
 30
0.0
 11
26.5784271247
 21
15.2708152802
 31
0.0
  0
ARC
  8
0
 62
0
 10
31.5784271247
 20
15.2708152802
 30
0.0
 40
5.0
 50
-180.0
 51
-135.0
  0
LINE
  8
0
 62
0
 10
28.0428932188
 20
11.7352813742
 30
0.0
 11
29.4852813742
 21
10.2928932188
 31
0.0
  0
ARC
  8
0
 62
0
 10
33.0208152802
 20
13.8284271247
 30
0.0
 40
5.0
 50
-135.0
 51
-90.0
  0
LINE
  8
0
 62
0
 10
33.0208152802
 20
8.82842712475
 30
0.0
 11
34.3284271247
 21
8.82842712475
 31
0.0
  0
ARC
  8
0
 62
0
 10
34.3284271247
 20
11.3284271247
 30
0.0
 40
2.5
 50
-90.0
 51
-0.0
  0
ARC
  8
0
 62
0
 10
36.3284271247
 20
11.3284271247
 30
0.0
 40
0.5
 50
-0.0
 51
90.0
  0
LINE
  8
0
 62
0
 10
36.3284271247
 20
11.8284271247
 30
0.0
 11
34.8284271247
 21
11.8284271247
 31
0.0
  0
ARC
  8
0
 62
0
 10
34.8284271247
 20
12.3284271247
 30
0.0
 40
0.5
 50
-180.0
 51
-90.0
  0
LINE
  8
0
 62
0
 10
34.3284271247
 20
12.3284271247
 30
0.0
 11
34.3284271247
 21
13.8284271247
 31
0.0
  0
ARC
  8
0
 62
0
 10
35.3284271247
 20
13.8284271247
 30
0.0
 40
1.0
 50
90.0
 51
-180.0
  0
LINE
  8
0
 62
0
 10
35.3284271247
 20
14.8284271247
 30
0.0
 11
37.3284271247
 21
14.8284271247
 31
0.0
  0
ARC
  8
0
 62
0
 10
37.3284271247
 20
13.3284271247
 30
0.0
 40
1.5
 50
-0.0
 51
90.0
  0
LINE
  8
0
 62
0
 10
38.8284271247
 20
13.3284271247
 30
0.0
 11
38.8284271247
 21
2.82842712475
 31
0.0
  0
ARC
  8
0
 62
0
 10
34.8284271247
 20
2.82842712475
 30
0.0
 40
4.0
 50
-90.0
 51
0.0
  0
LINE
  8
0
 62
0
 10
34.8284271247
 20
-1.17157287525
 30
0.0
 11
24.3284271247
 21
-1.17157287525
 31
0.0
  0
ARC
  8
0
 62
0
 10
24.3284271247
 20
0.328427124746
 30
0.0
 40
1.5
 50
-180.0
 51
-90.0
  0
LINE
  8
0
 62
0
 10
22.8284271247
 20
0.328427124746
 30
0.0
 11
22.8284271247
 21
2.32842712475
 31
0.0
  0
ARC
  8
0
 62
0
 10
23.8284271247
 20
2.32842712475
 30
0.0
 40
1.0
 50
90.0
 51
-180.0
  0
LINE
  8
0
 62
0
 10
23.8284271247
 20
3.32842712475
 30
0.0
 11
25.3284271247
 21
3.32842712475
 31
0.0
  0
ARC
  8
0
 62
0
 10
25.3284271247
 20
2.82842712475
 30
0.0
 40
0.5
 50
-0.0
 51
90.0
  0
LINE
  8
0
 62
0
 10
25.8284271247
 20
2.82842712475
 30
0.0
 11
25.8284271247
 21
1.32842712475
 31
0.0
  0
ARC
  8
0
 62
0
 10
26.3284271247
 20
1.32842712475
 30
0.0
 40
0.5
 50
-180.0
 51
-90.0
  0
ARC
  8
0
 62
0
 10
26.3284271247
 20
3.32842712475
 30
0.0
 40
2.5
 50
-90.0
 51
-0.0
  0
LINE
  8
0
 62
0
 10
28.8284271247
 20
3.32842712475
 30
0.0
 11
28.8284271247
 21
4.63603896932
 31
0.0
  0
ARC
  8
0
 62
0
 10
23.8284271247
 20
4.63603896932
 30
0.0
 40
5.0
 50
-0.0
 51
45.0
  0
LINE
  8
0
 62
0
 10
27.3639610307
 20
8.17157287525
 30
0.0
 11
25.9215728753
 21
9.61396103068
 31
0.0
  0
ARC
  8
0
 62
0
 10
22.3860389693
 20
6.07842712475
 30
0.0
 40
5.0
 50
45.0
 51
90.0
  0
LINE
  8
0
 62
0
 10
22.3860389693
 20
11.0784271247
 30
0.0
 11
15.2708152802
 21
11.0784271247
 31
0.0
  0
ARC
  8
0
 62
0
 10
15.2708152802
 20
6.07842712475
 30
0.0
 40
5.0
 50
90.0
 51
135.0
  0
LINE
  8
0
 62
0
 10
11.7352813742
 20
9.61396103068
 30
0.0
 11
10.2928932188
 21
8.17157287525
 31
0.0
  0
ENDBLK
  0
ENDSEC
  0
SECTION
  2
ENTITIES
  0
INSERT
  2
PART__FEATURE
  8
0
 62
0
 10
0.0
 20
0.0
 30
0.0
  0
ENDSEC
  0
EOF
